PathFileType	4	(X/Y/Z)	c:/Users/goper/Files/vsCode/490R/osim_files/C12/C12_Slow_03.trc
DataRate	CameraRate	NumFrames	NumMarkers	Units                	OrigDataRate	OrigDataStartFrame	OrigNumFrames
120.00	120.00	7	36	mm	120.0	1110	1479
                Frame#	Time	LPSIS			LASIS			LTH1			LTH2			LTH3			LTH4			LLFE			LMFE			LSH1			LSH2			LSH3			LSH4			LLMAL			LMMAL			LCAL			LMTP5			LTOE			LMTP1			RPSIS			RASIS			RTH1			RTH2			RTH3			RTH4			RLFE			RMFE			RSH1			RSH2			RSH3			RSH4			RLMAL			RMMAL			RCAL			RMTP1			RTOE			RMTP5		
		X1	Y1	Z1	X2	Y2	Z2	X3	Y3	Z3	X4	Y4	Z4	X5	Y5	Z5	X6	Y6	Z6	X7	Y7	Z7	X8	Y8	Z8	X9	Y9	Z9	X10	Y10	Z10	X11	Y11	Z11	X12	Y12	Z12	X13	Y13	Z13	X14	Y14	Z14	X15	Y15	Z15	X16	Y16	Z16	X17	Y17	Z17	X18	Y18	Z18	X19	Y19	Z19	X20	Y20	Z20	X21	Y21	Z21	X22	Y22	Z22	X23	Y23	Z23	X24	Y24	Z24	X25	Y25	Z25	X26	Y26	Z26	X27	Y27	Z27	X28	Y28	Z28	X29	Y29	Z29	X30	Y30	Z30	X31	Y31	Z31	X32	Y32	Z32	X33	Y33	Z33	X34	Y34	Z34	X35	Y35	Z35	X36	Y36	Z36

1110	9.24167	-3695.63599	1053.35242	327.29715	-3870.74829	1009.49762	401.52628	0.00000	0.00000	0.00000	-3740.15234	692.17896	452.69479	0.00000	0.00000	0.00000	-3793.03882	687.26459	459.69504	-3743.91064	509.95712	436.47397	-3771.67651	485.69101	317.78214	-3632.93701	486.00412	439.16107	-3596.72485	455.77121	444.77811	-3669.48926	437.93015	448.79544	-3629.01587	412.99075	450.06213	-3392.45020	251.60152	392.25229	-3412.60059	240.89905	318.34106	-3358.41382	300.96484	351.53787	-3372.37549	100.69284	406.85950	-3435.69922	79.72137	343.35339	-3399.78809	90.04810	299.67633	0.00000	0.00000	0.00000	-3885.25269	1029.65991	145.81868	-3885.49268	745.50391	89.94836	-3908.09229	707.37097	99.85415	-3942.67798	768.86774	103.81253	-3955.65454	724.23950	110.18818	-3973.83618	543.27014	149.10666	-3952.59180	544.25690	279.87607	-3925.53442	439.98682	121.16284	-3931.00757	397.19067	116.83857	-3988.69873	438.38449	138.81137	-3984.90015	396.62982	130.45717	-3943.27124	114.00440	169.13972	-3965.19849	122.36137	253.51561	-3869.30786	77.09525	207.19510	-4093.89209	61.30232	252.90839	-4136.16162	84.95316	222.19514	-4103.82471	56.69414	147.34042
1111	9.25000	-3705.32764	1054.55371	326.65857	-3880.68066	1011.22491	400.44653	0.00000	0.00000	0.00000	-3755.66479	692.48431	453.31500	0.00000	0.00000	0.00000	-3808.33691	688.44794	460.58459	-3762.94092	510.26572	437.65393	-3792.53394	485.96365	319.38483	-3652.89429	487.30386	440.31085	-3616.36963	457.55231	445.94070	-3688.78223	438.74677	450.52682	-3648.29883	414.44028	451.51117	-3409.15259	257.14621	392.89380	-3429.60669	245.10748	318.56805	-3378.62061	308.58459	351.80490	-3381.63843	107.42223	406.29224	-3443.41064	79.18636	344.55399	-3409.11011	95.20437	300.51425	0.00000	0.00000	0.00000	-3895.35205	1031.32410	144.66560	0.00000	0.00000	0.00000	-3914.19189	707.80823	98.61868	-3949.60352	768.69086	102.10690	-3962.09717	723.97095	108.41476	-3978.65234	543.07324	147.94481	-3958.23071	544.59009	278.95923	-3927.78882	440.28992	121.12930	-3932.74658	397.51230	116.70734	-3991.20898	437.97089	137.61275	-3986.82983	396.25476	129.36993	-3943.62671	114.10592	169.13634	-3965.63037	122.51627	253.42220	-3869.48022	77.51785	207.16125	-4094.12158	61.14644	252.90689	-4136.46924	84.48459	222.10077	-4104.00537	56.46006	147.21315
1112	9.25833	-3714.65674	1055.56775	326.03857	-3890.26294	1012.94763	399.59616	0.00000	0.00000	0.00000	-3768.90601	691.68408	451.98111	0.00000	0.00000	0.00000	-3822.98950	689.59247	461.10767	-3781.91406	511.15851	438.73279	-3813.05762	487.40295	320.44467	-3673.21777	488.62341	441.53506	-3636.33569	459.15894	447.08945	-3708.81201	439.89813	451.73557	-3666.39331	416.48648	452.11914	-3426.42554	262.40518	393.71790	-3446.95850	248.80566	319.19342	-3399.27588	315.16989	351.76889	-3392.21216	113.67996	405.61411	-3449.98682	79.09814	345.68231	-3419.71533	99.61344	301.29779	0.00000	0.00000	0.00000	-3905.25049	1033.00891	143.67540	-3897.94727	747.01520	87.97909	-3919.98779	708.27130	97.41368	-3956.34131	768.65009	100.51226	-3968.14673	723.73615	106.80373	-3983.08276	542.93066	146.85425	-3963.53931	544.85443	278.23584	-3929.61304	440.60919	121.30157	-3933.95801	397.74719	116.61987	-3993.32495	437.66898	136.37479	-3988.39062	396.02731	128.26932	-3943.93042	114.15962	169.25966	-3966.09546	122.70956	253.37396	-3869.66821	77.95563	207.16248	-4094.37256	61.01588	252.89403	-4136.67676	83.93483	221.97334	-4104.19287	56.22896	147.13507
1113	9.26667	-3723.72363	1056.64771	325.27756	-3899.81787	1014.85822	398.84738	0.00000	0.00000	0.00000	-3783.47412	692.46869	452.22552	0.00000	0.00000	0.00000	-3837.55737	691.49689	462.01334	-3801.01196	512.47626	439.83133	-3832.81689	489.44406	321.23877	-3693.68530	489.92294	442.73422	-3656.60083	460.56409	448.31396	-3728.30127	441.30145	453.95273	-3686.47314	417.67407	453.24164	-3443.92261	267.06253	394.49652	-3465.06836	252.10486	319.96384	-3419.61011	320.48062	351.28311	-3400.66650	119.80949	404.85040	-3457.97192	80.76666	347.98804	-3431.19336	104.29563	301.81580	0.00000	0.00000	0.00000	-3915.04639	1034.91687	142.87576	-3902.82129	748.00256	87.81728	-3925.64307	708.89221	96.23627	-3962.76660	768.70087	99.03608	-3974.11377	723.71313	105.25009	-3987.07812	542.86871	145.72112	-3968.49487	545.22333	277.49573	-3931.11890	441.00861	121.43102	-3934.87354	398.01828	116.67292	-3995.20410	437.54733	134.46132	-3989.54272	395.82642	127.14366	-3944.21240	114.26218	169.33195	-3966.52637	122.91908	253.30910	-3869.88452	78.32416	207.19118	-4095.35352	61.05789	254.48265	-4136.84229	83.45100	221.82661	-4104.38623	56.02141	147.12749
1114	9.27500	-3732.69629	1057.63892	324.50519	-3909.22314	1016.87958	398.20297	0.00000	0.00000	0.00000	-3797.81567	693.61664	452.39124	0.00000	0.00000	0.00000	-3851.73657	693.82159	462.86209	-3820.20972	514.20514	440.86209	-3852.29126	491.94650	321.72311	-3714.28540	491.08783	443.97925	-3677.10938	461.81641	449.50333	-3749.49487	441.68033	453.62061	-3706.91260	418.77148	454.19809	-3462.07300	271.41858	395.10184	-3484.21069	255.02240	320.86365	-3441.71680	325.58340	350.99738	-3411.15137	126.37496	404.54974	-3468.88843	84.78224	349.45090	-3444.42285	108.87874	302.55344	0.00000	0.00000	0.00000	-3924.55151	1036.81689	142.17416	-3908.65747	748.93060	87.08247	-3931.17505	709.50684	95.22665	-3969.13696	768.90540	97.69479	-3979.86133	723.76575	103.87842	-3986.27319	541.26221	146.24373	-3972.73438	545.32556	276.71207	-3932.34766	441.36597	121.51734	-3935.77246	398.44464	116.76104	-3996.27563	438.42383	133.14886	-3990.50684	395.78693	126.02894	-3944.45361	114.30156	169.35307	-3966.86133	123.16768	253.21718	-3870.13135	78.69755	207.17566	-4095.48901	60.95487	254.45627	-4137.06934	83.06220	221.67969	-4104.43799	55.74561	147.07458
1115	9.28333	-3741.66870	1058.72461	323.66232	-3918.50269	1019.09625	397.66269	0.00000	0.00000	0.00000	-3811.82300	695.00104	452.34570	0.00000	0.00000	0.00000	-3865.73242	696.19672	463.35083	-3839.44043	516.33429	441.95493	-3871.37134	494.64886	322.15894	-3735.08276	492.38458	445.22531	-3697.64819	463.08902	450.73157	-3770.08813	443.01523	454.20422	-3727.43677	420.03619	455.13950	-3480.68066	275.77609	395.64059	-3504.05518	257.62708	321.70706	-3463.68481	330.10861	350.70602	-3423.90576	132.32420	404.18881	-3481.33179	88.41191	351.36697	-3459.39258	113.15184	303.38599	0.00000	0.00000	0.00000	-3934.02344	1038.83008	141.54649	-3914.43530	749.99847	86.28845	0.00000	0.00000	0.00000	-3975.26807	769.17468	96.49324	-3985.52734	723.96747	102.69782	-3989.20410	541.24438	145.30396	-3977.07031	545.67877	276.15775	-3933.73413	442.00656	121.60132	-3936.64160	398.98322	116.77509	-3997.77148	438.49063	132.00841	-3991.48560	395.92621	125.00031	-3944.64575	114.37769	169.33319	-3967.20557	123.43371	253.07584	-3870.37744	79.07727	207.15477	-4095.62671	60.85370	254.42984	-4137.19775	82.68671	221.51976	-4104.53711	55.52101	146.99010
1116	9.29167	-3750.39087	1060.06116	322.78445	-3929.98877	1022.30634	396.09390	0.00000	0.00000	0.00000	-3825.82764	696.45789	452.30002	0.00000	0.00000	0.00000	-3879.54346	698.82947	463.83926	-3858.58203	518.75446	442.77258	-3890.25000	497.82639	322.47580	-3755.35327	494.04260	446.37238	-3718.05566	464.66565	451.94547	-3790.57568	444.71075	454.58908	-3748.48193	422.44394	455.88257	-3499.70093	279.45016	396.13370	-3524.39941	260.64526	321.62207	-3485.09912	333.91568	350.58176	-3438.12109	137.82841	403.02350	-3495.43018	91.01924	353.13107	-3476.14038	116.71585	304.16492	0.00000	0.00000	0.00000	-3943.27319	1040.82532	140.93678	-3920.67700	751.16412	84.83775	0.00000	0.00000	0.00000	-3981.28491	769.59998	95.44431	-3991.14795	724.31561	101.62442	-3992.02905	541.35077	144.44157	-3980.73657	545.81317	275.40393	-3935.08740	442.56119	121.59035	-3937.62549	399.53906	116.54435	-3999.19312	438.54880	131.05211	-3992.57520	396.05493	124.06604	-3944.80078	114.51212	169.30623	-3967.50562	123.72701	252.94704	-3870.56055	79.48413	207.12819	-4095.74121	60.71538	254.37656	-4137.41846	82.38427	221.44168	-4104.69727	55.39718	146.94699
